<?xml version="1.0" standalone="yes"?>

<svg version="1.1" viewBox="0.0 0.0 960.0 720.0" fill="none" stroke="none" stroke-linecap="square" stroke-miterlimit="10" clip-path="url(#g480d1ea_0_173.0)" xmlns="http://www.w3.org/2000/svg" xmlns:xlink="http://www.w3.org/1999/xlink"><clipPath id="g480d1ea_0_173.0"><path d="m0 0l960.0 0l0 720.0l-960.0 0l0 -720.0z" clip-rule="nonzero"></path></clipPath><path fill="#ffffff" d="m0 0l960.0 0l0 720.0l-960.0 0z" fill-rule="nonzero"></path><path fill="#cccccc" stroke="#666666" stroke-width="2.0" stroke-linejoin="round" stroke-linecap="butt" d="m230.47244 130.28084l0 0c0 -21.89135 17.746445 -39.637794 39.637787 -39.637794l401.03937 0c10.512573 0 20.594604 4.176117 28.028137 11.609642c7.4335327 7.4335327 11.60968 17.515556 11.60968 28.028152l0 0l0 0c0 21.891357 -17.74646 39.637802 -39.637817 39.637802l-401.03937 0c-21.891342 0 -39.637787 -17.746445 -39.637787 -39.637802z" fill-rule="nonzero"></path><path fill="#cccccc" stroke="#666666" stroke-width="2.0" stroke-linejoin="round" stroke-linecap="butt" d="m230.47244 258.28085l0 0c0 -21.891357 17.746445 -39.637802 39.637787 -39.637802l401.03937 0c10.512573 0 20.594604 4.1761017 28.028137 11.609634c7.4335327 7.4335327 11.60968 17.515564 11.60968 28.028168l0 0l0 0c0 21.891327 -17.74646 39.637787 -39.637817 39.637787l-401.03937 0c-21.891342 0 -39.637787 -17.74646 -39.637787 -39.637787z" fill-rule="nonzero"></path><path fill="#cccccc" stroke="#666666" stroke-width="2.0" stroke-linejoin="round" stroke-linecap="butt" d="m230.47244 386.28085l0 0c0 -21.891357 17.746445 -39.637817 39.637787 -39.637817l401.03937 0c10.512573 0 20.594604 4.176117 28.028137 11.60965c7.4335327 7.4335327 11.60968 17.515564 11.60968 28.028168l0 0l0 0c0 21.891327 -17.74646 39.637787 -39.637817 39.637787l-401.03937 0c-21.891342 0 -39.637787 -17.74646 -39.637787 -39.637787z" fill-rule="nonzero"></path><path fill="#cccccc" stroke="#666666" stroke-width="2.0" stroke-linejoin="round" stroke-linecap="butt" d="m230.47244 514.2808l0 0c0 -21.891327 17.746445 -39.637787 39.637787 -39.637787l401.03937 0c10.512573 0 20.594604 4.176117 28.028137 11.60965c7.4335327 7.4335327 11.60968 17.515564 11.60968 28.028137l0 0l0 0c0 21.891357 -17.74646 39.637817 -39.637817 39.637817l-401.03937 0c-21.891342 0 -39.637787 -17.74646 -39.637787 -39.637817z" fill-rule="nonzero"></path><path fill="#cccccc" stroke="#666666" stroke-width="2.0" stroke-linejoin="round" stroke-linecap="butt" d="m230.47244 642.2808l0 0c0 -21.891357 17.746445 -39.637756 39.637787 -39.637756l401.03937 0c10.512573 0 20.594604 4.1760864 28.028137 11.609619c7.4335327 7.4335327 11.60968 17.515564 11.60968 28.028137l0 0l0 0c0 21.891357 -17.74646 39.637817 -39.637817 39.637817l-401.03937 0c-21.891342 0 -39.637787 -17.74646 -39.637787 -39.637817z" fill-rule="nonzero"></path><path fill="#cccccc" stroke="#666666" stroke-width="2.0" stroke-linejoin="round" stroke-linecap="butt" d="m50.671917 383.0525l0 0c0 -26.509674 21.49033 -48.0 47.999996 -48.0l0 0c12.730392 0 24.939384 5.057129 33.941124 14.058868c9.001755 9.00177 14.058884 21.210754 14.058884 33.94113l0 0c0 26.509674 -21.490334 48.0 -48.000008 48.0l0 0c-26.509666 0 -47.999996 -21.490326 -47.999996 -48.0z" fill-rule="nonzero"></path><path stroke="#666666" stroke-width="2.0" stroke-linejoin="round" stroke-linecap="butt" d="m183.09973 74.67454l1.8582764 616.75586" fill-rule="nonzero"></path><path fill="#000000" d="m135.5626 60.85917l0 -28.640625l3.78125 0l0 28.640625l-3.78125 0zm10.019531 0l0 -20.75l3.15625 0l0 2.953125q2.296875 -3.421875 6.609375 -3.421875q1.875 0 3.4375 0.6875q1.578125 0.671875 2.359375 1.765625q0.78125 1.09375 1.09375 2.59375q0.203125 0.96875 0.203125 3.421875l0 12.75l-3.515625 0l0 -12.625q0 -2.140625 -0.421875 -3.203125q-0.40625 -1.0625 -1.453125 -1.703125q-1.046875 -0.640625 -2.453125 -0.640625q-2.234375 0 -3.875 1.4375q-1.625 1.421875 -1.625 5.40625l0 11.328125l-3.515625 0zm20.839844 -6.1875l3.46875 -0.546875q0.296875 2.078125 1.625 3.203125q1.34375 1.109375 3.75 1.109375q2.421875 0 3.59375 -0.984375q1.171875 -0.984375 1.171875 -2.3125q0 -1.203125 -1.03125 -1.875q-0.71875 -0.46875 -3.59375 -1.203125q-3.875 -0.96875 -5.375 -1.671875q-1.484375 -0.71875 -2.265625 -1.984375q-0.765625 -1.265625 -0.765625 -2.78125q0 -1.390625 0.640625 -2.5625q0.640625 -1.1875 1.734375 -1.96875q0.8125 -0.609375 2.21875 -1.03125q1.421875 -0.421875 3.046875 -0.421875q2.4375 0 4.28125 0.703125q1.859375 0.703125 2.734375 1.90625q0.875 1.203125 1.203125 3.21875l-3.4375 0.46875q-0.234375 -1.609375 -1.359375 -2.5q-1.109375 -0.90625 -3.171875 -0.90625q-2.421875 0 -3.453125 0.8125q-1.03125 0.796875 -1.03125 1.875q0 0.671875 0.421875 1.21875q0.4375 0.578125 1.359375 0.9375q0.515625 0.203125 3.09375 0.90625q3.734375 1.0 5.203125 1.640625q1.484375 0.625 2.3125 1.84375q0.84375 1.203125 0.84375 3.0q0 1.75 -1.03125 3.3125q-1.015625 1.546875 -2.953125 2.40625q-1.921875 0.84375 -4.375 0.84375q-4.03125 0 -6.15625 -1.671875q-2.125 -1.6875 -2.703125 -4.984375zm35.609375 -0.5l3.625 0.453125q-0.859375 3.1875 -3.1875 4.953125q-2.3125 1.75 -5.9375 1.75q-4.546875 0 -7.21875 -2.796875q-2.65625 -2.8125 -2.65625 -7.875q0 -5.234375 2.6875 -8.125q2.703125 -2.890625 7.0 -2.890625q4.15625 0 6.796875 2.84375q2.640625 2.828125 2.640625 7.96875q0 0.3125 -0.03125 0.9375l-15.46875 0q0.203125 3.40625 1.9375 5.234375q1.734375 1.8125 4.34375 1.8125q1.921875 0 3.28125 -1.015625q1.375 -1.015625 2.1875 -3.25zm-11.546875 -5.671875l11.578125 0q-0.234375 -2.625 -1.328125 -3.9375q-1.671875 -2.03125 -4.359375 -2.03125q-2.421875 0 -4.078125 1.625q-1.640625 1.625 -1.8125 4.34375zm19.542969 12.359375l0 -20.75l3.171875 0l0 3.15625q1.203125 -2.21875 2.234375 -2.921875q1.03125 -0.703125 2.25 -0.703125q1.78125 0 3.625 1.140625l-1.21875 3.265625q-1.28125 -0.765625 -2.578125 -0.765625q-1.15625 0 -2.078125 0.703125q-0.90625 0.6875 -1.296875 1.90625q-0.59375 1.875 -0.59375 4.109375l0 10.859375l-3.515625 0zm21.039062 -3.140625l0.515625 3.09375q-1.484375 0.328125 -2.65625 0.328125q-1.921875 0 -2.984375 -0.609375q-1.046875 -0.609375 -1.484375 -1.59375q-0.421875 -0.984375 -0.421875 -4.15625l0 -11.9375l-2.578125 0l0 -2.734375l2.578125 0l0 -5.125l3.5 -2.109375l0 7.234375l3.53125 0l0 2.734375l-3.53125 0l0 12.140625q0 1.5 0.1875 1.9375q0.1875 0.421875 0.59375 0.671875q0.421875 0.25 1.203125 0.25q0.59375 0 1.546875 -0.125z" fill-rule="nonzero"></path><path stroke="#666666" stroke-width="2.0" stroke-linejoin="round" stroke-linecap="butt" d="m743.09973 74.67454l1.8582764 616.75586" fill-rule="nonzero"></path><path fill="#000000" d="m712.16614 57.79667q2.640625 1.8125 4.875 2.65625l-1.125 2.640625q-3.078125 -1.125 -6.140625 -3.53125q-3.1875 1.78125 -7.03125 1.78125q-3.890625 0 -7.0625 -1.875q-3.15625 -1.875 -4.875 -5.265625q-1.703125 -3.40625 -1.703125 -7.65625q0 -4.25 1.71875 -7.71875q1.71875 -3.484375 4.890625 -5.296875q3.171875 -1.8125 7.109375 -1.8125q3.953125 0 7.140625 1.890625q3.1875 1.875 4.859375 5.265625q1.671875 3.390625 1.671875 7.640625q0 3.546875 -1.078125 6.375q-1.078125 2.8125 -3.25 4.90625zm-8.328125 -4.84375q3.28125 0.90625 5.40625 2.734375q3.34375 -3.046875 3.34375 -9.171875q0 -3.46875 -1.1875 -6.0625q-1.1875 -2.609375 -3.46875 -4.03125q-2.265625 -1.4375 -5.09375 -1.4375q-4.234375 0 -7.03125 2.90625q-2.796875 2.890625 -2.796875 8.65625q0 5.578125 2.765625 8.578125q2.765625 2.984375 7.0625 2.984375q2.03125 0 3.828125 -0.765625q-1.78125 -1.15625 -3.75 -1.640625l0.921875 -2.75zm30.894531 7.90625l0 -3.046875q-2.421875 3.515625 -6.578125 3.515625q-1.84375 0 -3.4375 -0.703125q-1.59375 -0.703125 -2.359375 -1.765625q-0.765625 -1.0625 -1.078125 -2.609375q-0.21875 -1.03125 -0.21875 -3.28125l0 -12.859375l3.515625 0l0 11.515625q0 2.75 0.21875 3.703125q0.328125 1.390625 1.390625 2.1875q1.078125 0.78125 2.671875 0.78125q1.578125 0 2.953125 -0.8125q1.390625 -0.8125 1.96875 -2.203125q0.578125 -1.390625 0.578125 -4.046875l0 -11.125l3.515625 0l0 20.75l-3.140625 0zm22.855469 -6.6875l3.625 0.453125q-0.859375 3.1875 -3.1875 4.953125q-2.3125 1.75 -5.9375 1.75q-4.546875 0 -7.21875 -2.796875q-2.65625 -2.8125 -2.65625 -7.875q0 -5.234375 2.6875 -8.125q2.703125 -2.890625 7.0 -2.890625q4.15625 0 6.796875 2.84375q2.640625 2.828125 2.640625 7.96875q0 0.3125 -0.03125 0.9375l-15.46875 0q0.203125 3.40625 1.9375 5.234375q1.734375 1.8125 4.34375 1.8125q1.921875 0 3.28125 -1.015625q1.375 -1.015625 2.1875 -3.25zm-11.546875 -5.671875l11.578125 0q-0.234375 -2.625 -1.328125 -3.9375q-1.671875 -2.03125 -4.359375 -2.03125q-2.421875 0 -4.078125 1.625q-1.640625 1.625 -1.8125 4.34375zm19.542969 12.359375l0 -20.75l3.171875 0l0 3.15625q1.203125 -2.21875 2.234375 -2.921875q1.03125 -0.703125 2.25 -0.703125q1.78125 0 3.625 1.140625l-1.21875 3.265625q-1.28125 -0.765625 -2.578125 -0.765625q-1.15625 0 -2.078125 0.703125q-0.90625 0.6875 -1.296875 1.90625q-0.59375 1.875 -0.59375 4.109375l0 10.859375l-3.515625 0zm13.2109375 7.984375l-0.390625 -3.296875q1.15625 0.3125 2.015625 0.3125q1.171875 0 1.875 -0.390625q0.703125 -0.390625 1.140625 -1.09375q0.34375 -0.53125 1.078125 -2.609375q0.09375 -0.296875 0.3125 -0.859375l-7.875 -20.796875l3.796875 0l4.3125 12.015625q0.84375 2.28125 1.5 4.8125q0.609375 -2.421875 1.453125 -4.734375l4.4375 -12.09375l3.515625 0l-7.890625 21.109375q-1.28125 3.40625 -1.984375 4.703125q-0.9375 1.734375 -2.15625 2.546875q-1.203125 0.8125 -2.875 0.8125q-1.015625 0 -2.265625 -0.4375z" fill-rule="nonzero"></path><path stroke="#666666" stroke-width="8.0" stroke-linejoin="round" stroke-linecap="butt" d="m311.60104 62.687664l264.5356 -0.7731056" fill-rule="evenodd"></path><path fill="#666666" stroke="#666666" stroke-width="8.0" stroke-linecap="butt" d="m576.1753 75.128365l36.26599 -13.319908l-36.3432 -13.1077z" fill-rule="evenodd"></path><path fill="#000000" d="m461.17264 50.249588l0 -20.203123l-7.546875 0l0 -2.703125l18.15625 0l0 2.703125l-7.578125 0l0 20.203123l-3.03125 0zm13.375 -19.671873l0 -3.234375l2.8125 0l0 3.234375l-2.8125 0zm0 19.671873l0 -16.59375l2.8125 0l0 16.59375l-2.8125 0zm7.09375 0l0 -16.59375l2.515625 0l0 2.328125q0.78125 -1.21875 2.078125 -1.953125q1.296875 -0.75 2.953125 -0.75q1.84375 0 3.015625 0.765625q1.1875 0.765625 1.671875 2.140625q1.96875 -2.90625 5.125 -2.90625q2.46875 0 3.796875 1.375q1.328125 1.359375 1.328125 4.203125l0 11.390625l-2.796875 0l0 -10.453125q0 -1.6875 -0.28125 -2.421875q-0.265625 -0.75 -0.984375 -1.203125q-0.71875 -0.453125 -1.6875 -0.453125q-1.75 0 -2.90625 1.171875q-1.15625 1.15625 -1.15625 3.71875l0 9.640625l-2.8125 0l0 -10.78125q0 -1.875 -0.6875 -2.8125q-0.6875 -0.9375 -2.25 -0.9375q-1.1875 0 -2.203125 0.625q-1.0 0.625 -1.453125 1.828125q-0.453125 1.203125 -0.453125 3.46875l0 8.609375l-2.8125 0zm38.015594 -5.34375l2.90625 0.359375q-0.6875 2.546875 -2.546875 3.953125q-1.859375 1.40625 -4.75 1.40625q-3.6405945 0 -5.7812195 -2.234375q-2.125 -2.25 -2.125 -6.296875q0 -4.1875 2.15625 -6.5q2.15625 -2.3125 5.5937195 -2.3125q3.328125 0 5.4375 2.265625q2.109375 2.265625 2.109375 6.375q0 0.25 -0.015625 0.75l-12.3749695 0q0.15625 2.734375 1.546875 4.1875q1.3905945 1.453125 3.4687195 1.453125q1.546875 0 2.640625 -0.8125q1.09375 -0.8125 1.734375 -2.59375zm-9.2343445 -4.546875l9.2655945 0q-0.1875 -2.09375 -1.0625 -3.140625q-1.34375 -1.625 -3.484375 -1.625q-1.9375 0 -3.2655945 1.296875q-1.3125 1.296875 -1.453125 3.46875z" fill-rule="nonzero"></path><path fill="#4a86e8" stroke="#666666" stroke-width="2.0" stroke-linejoin="round" stroke-linecap="butt" d="m251.94489 131.43045l0 0c0 -11.706703 9.285675 -21.196854 20.740143 -21.196854l0 0c5.500641 0 10.77597 2.2332306 14.665527 6.208412c3.8895264 3.9751816 6.074646 9.366684 6.074646 14.988441l0 0c0 11.706696 -9.285706 21.196838 -20.740173 21.196838l0 0c-11.454468 0 -20.740143 -9.490143 -20.740143 -21.196838z" fill-rule="nonzero"></path><path fill="#4a86e8" stroke="#666666" stroke-width="2.0" stroke-linejoin="round" stroke-linecap="butt" d="m251.94489 259.43045l0 0c0 -11.706696 9.285675 -21.196854 20.740143 -21.196854l0 0c5.500641 0 10.77597 2.2332306 14.665527 6.20842c3.8895264 3.975174 6.074646 9.366669 6.074646 14.988434l0 0c0 11.706696 -9.285706 21.196838 -20.740173 21.196838l0 0c-11.454468 0 -20.740143 -9.490143 -20.740143 -21.196838z" fill-rule="nonzero"></path><path fill="#4a86e8" stroke="#666666" stroke-width="2.0" stroke-linejoin="round" stroke-linecap="butt" d="m251.94489 383.0525l0 0c0 -11.706696 9.285675 -21.196838 20.740143 -21.196838l0 0c5.500641 0 10.77597 2.2332153 14.665527 6.2084045c3.8895264 3.9751892 6.074646 9.366669 6.074646 14.988434l0 0c0 11.706696 -9.285706 21.196838 -20.740173 21.196838l0 0c-11.454468 0 -20.740143 -9.490143 -20.740143 -21.196838z" fill-rule="nonzero"></path><path fill="#4a86e8" stroke="#666666" stroke-width="2.0" stroke-linejoin="round" stroke-linecap="butt" d="m251.94489 515.4304l0 0c0 -11.706665 9.285675 -21.196838 20.740143 -21.196838l0 0c5.500641 0 10.77597 2.2332458 14.665527 6.208435c3.8895264 3.9751587 6.074646 9.366669 6.074646 14.988403l0 0c0 11.706726 -9.285706 21.1969 -20.740173 21.1969l0 0c-11.454468 0 -20.740143 -9.490173 -20.740143 -21.1969z" fill-rule="nonzero"></path><path fill="#4a86e8" stroke="#666666" stroke-width="2.0" stroke-linejoin="round" stroke-linecap="butt" d="m251.94489 643.4304l0 0c0 -11.706665 9.285675 -21.196838 20.740143 -21.196838l0 0c5.500641 0 10.77597 2.2332764 14.665527 6.208435c3.8895264 3.9751587 6.074646 9.366699 6.074646 14.988403l0 0c0 11.706726 -9.285706 21.1969 -20.740173 21.1969l0 0c-11.454468 0 -20.740143 -9.490173 -20.740143 -21.1969z" fill-rule="nonzero"></path><path fill="#4a86e8" stroke="#666666" stroke-width="2.0" stroke-linejoin="round" stroke-linecap="butt" d="m331.9449 131.43045l0 0c0 -11.706703 9.285675 -21.196854 20.740143 -21.196854l0 0c5.500641 0 10.77597 2.2332306 14.665527 6.208412c3.8895264 3.9751816 6.074646 9.366684 6.074646 14.988441l0 0c0 11.706696 -9.285706 21.196838 -20.740173 21.196838l0 0c-11.454468 0 -20.740143 -9.490143 -20.740143 -21.196838z" fill-rule="nonzero"></path><path fill="#4a86e8" stroke="#666666" stroke-width="2.0" stroke-linejoin="round" stroke-linecap="butt" d="m331.9449 259.43045l0 0c0 -11.706696 9.285675 -21.196854 20.740143 -21.196854l0 0c5.500641 0 10.77597 2.2332306 14.665527 6.20842c3.8895264 3.975174 6.074646 9.366669 6.074646 14.988434l0 0c0 11.706696 -9.285706 21.196838 -20.740173 21.196838l0 0c-11.454468 0 -20.740143 -9.490143 -20.740143 -21.196838z" fill-rule="nonzero"></path><path fill="#4a86e8" stroke="#666666" stroke-width="2.0" stroke-linejoin="round" stroke-linecap="butt" d="m331.9449 383.0525l0 0c0 -11.706696 9.285675 -21.196838 20.740143 -21.196838l0 0c5.500641 0 10.77597 2.2332153 14.665527 6.2084045c3.8895264 3.9751892 6.074646 9.366669 6.074646 14.988434l0 0c0 11.706696 -9.285706 21.196838 -20.740173 21.196838l0 0c-11.454468 0 -20.740143 -9.490143 -20.740143 -21.196838z" fill-rule="nonzero"></path><path fill="#4a86e8" stroke="#666666" stroke-width="2.0" stroke-linejoin="round" stroke-linecap="butt" d="m331.9449 515.4304l0 0c0 -11.706665 9.285675 -21.196838 20.740143 -21.196838l0 0c5.500641 0 10.77597 2.2332458 14.665527 6.208435c3.8895264 3.9751587 6.074646 9.366669 6.074646 14.988403l0 0c0 11.706726 -9.285706 21.1969 -20.740173 21.1969l0 0c-11.454468 0 -20.740143 -9.490173 -20.740143 -21.1969z" fill-rule="nonzero"></path><path fill="#4a86e8" stroke="#666666" stroke-width="2.0" stroke-linejoin="round" stroke-linecap="butt" d="m331.9449 643.4304l0 0c0 -11.706665 9.285675 -21.196838 20.740143 -21.196838l0 0c5.500641 0 10.77597 2.2332764 14.665527 6.208435c3.8895264 3.9751587 6.074646 9.366699 6.074646 14.988403l0 0c0 11.706726 -9.285706 21.1969 -20.740173 21.1969l0 0c-11.454468 0 -20.740143 -9.490173 -20.740143 -21.1969z" fill-rule="nonzero"></path><path fill="#6aa84f" stroke="#666666" stroke-width="2.0" stroke-linejoin="round" stroke-linecap="butt" d="m411.9449 131.43045l0 0c0 -11.706703 9.285675 -21.196854 20.740143 -21.196854l0 0c5.500641 0 10.77597 2.2332306 14.665527 6.208412c3.8895264 3.9751816 6.074646 9.366684 6.074646 14.988441l0 0c0 11.706696 -9.285706 21.196838 -20.740173 21.196838l0 0c-11.454468 0 -20.740143 -9.490143 -20.740143 -21.196838z" fill-rule="nonzero"></path><path fill="#6aa84f" stroke="#666666" stroke-width="2.0" stroke-linejoin="round" stroke-linecap="butt" d="m411.9449 259.43045l0 0c0 -11.706696 9.285675 -21.196854 20.740143 -21.196854l0 0c5.500641 0 10.77597 2.2332306 14.665527 6.20842c3.8895264 3.975174 6.074646 9.366669 6.074646 14.988434l0 0c0 11.706696 -9.285706 21.196838 -20.740173 21.196838l0 0c-11.454468 0 -20.740143 -9.490143 -20.740143 -21.196838z" fill-rule="nonzero"></path><path fill="#6aa84f" stroke="#666666" stroke-width="2.0" stroke-linejoin="round" stroke-linecap="butt" d="m411.9449 383.0525l0 0c0 -11.706696 9.285675 -21.196838 20.740143 -21.196838l0 0c5.500641 0 10.77597 2.2332153 14.665527 6.2084045c3.8895264 3.9751892 6.074646 9.366669 6.074646 14.988434l0 0c0 11.706696 -9.285706 21.196838 -20.740173 21.196838l0 0c-11.454468 0 -20.740143 -9.490143 -20.740143 -21.196838z" fill-rule="nonzero"></path><path fill="#6aa84f" stroke="#666666" stroke-width="2.0" stroke-linejoin="round" stroke-linecap="butt" d="m411.9449 515.4304l0 0c0 -11.706665 9.285675 -21.196838 20.740143 -21.196838l0 0c5.500641 0 10.77597 2.2332458 14.665527 6.208435c3.8895264 3.9751587 6.074646 9.366669 6.074646 14.988403l0 0c0 11.706726 -9.285706 21.1969 -20.740173 21.1969l0 0c-11.454468 0 -20.740143 -9.490173 -20.740143 -21.1969z" fill-rule="nonzero"></path><path fill="#6aa84f" stroke="#666666" stroke-width="2.0" stroke-linejoin="round" stroke-linecap="butt" d="m411.9449 643.4304l0 0c0 -11.706665 9.285675 -21.196838 20.740143 -21.196838l0 0c5.500641 0 10.77597 2.2332764 14.665527 6.208435c3.8895264 3.9751587 6.074646 9.366699 6.074646 14.988403l0 0c0 11.706726 -9.285706 21.1969 -20.740173 21.1969l0 0c-11.454468 0 -20.740143 -9.490173 -20.740143 -21.1969z" fill-rule="nonzero"></path><path fill="#ffff00" stroke="#666666" stroke-width="2.0" stroke-linejoin="round" stroke-linecap="butt" d="m491.9449 131.43045l0 0c0 -11.706703 9.285675 -21.196854 20.740173 -21.196854l0 0c5.5006104 0 10.77594 2.2332306 14.665466 6.208412c3.8895264 3.9751816 6.074646 9.366684 6.074646 14.988441l0 0c0 11.706696 -9.285645 21.196838 -20.740112 21.196838l0 0c-11.454498 0 -20.740173 -9.490143 -20.740173 -21.196838z" fill-rule="nonzero"></path><path fill="#ffff00" stroke="#666666" stroke-width="2.0" stroke-linejoin="round" stroke-linecap="butt" d="m491.9449 259.43045l0 0c0 -11.706696 9.285675 -21.196854 20.740173 -21.196854l0 0c5.5006104 0 10.77594 2.2332306 14.665466 6.20842c3.8895264 3.975174 6.074646 9.366669 6.074646 14.988434l0 0c0 11.706696 -9.285645 21.196838 -20.740112 21.196838l0 0c-11.454498 0 -20.740173 -9.490143 -20.740173 -21.196838z" fill-rule="nonzero"></path><path fill="#ffff00" stroke="#666666" stroke-width="2.0" stroke-linejoin="round" stroke-linecap="butt" d="m491.9449 383.0525l0 0c0 -11.706696 9.285675 -21.196838 20.740173 -21.196838l0 0c5.5006104 0 10.77594 2.2332153 14.665466 6.2084045c3.8895264 3.9751892 6.074646 9.366669 6.074646 14.988434l0 0c0 11.706696 -9.285645 21.196838 -20.740112 21.196838l0 0c-11.454498 0 -20.740173 -9.490143 -20.740173 -21.196838z" fill-rule="nonzero"></path><path fill="#ffff00" stroke="#666666" stroke-width="2.0" stroke-linejoin="round" stroke-linecap="butt" d="m491.9449 515.4304l0 0c0 -11.706665 9.285675 -21.196838 20.740173 -21.196838l0 0c5.5006104 0 10.77594 2.2332458 14.665466 6.208435c3.8895264 3.9751587 6.074646 9.366669 6.074646 14.988403l0 0c0 11.706726 -9.285645 21.1969 -20.740112 21.1969l0 0c-11.454498 0 -20.740173 -9.490173 -20.740173 -21.1969z" fill-rule="nonzero"></path><path fill="#ffff00" stroke="#666666" stroke-width="2.0" stroke-linejoin="round" stroke-linecap="butt" d="m491.9449 643.4304l0 0c0 -11.706665 9.285675 -21.196838 20.740173 -21.196838l0 0c5.5006104 0 10.77594 2.2332764 14.665466 6.208435c3.8895264 3.9751587 6.074646 9.366699 6.074646 14.988403l0 0c0 11.706726 -9.285645 21.1969 -20.740112 21.1969l0 0c-11.454498 0 -20.740173 -9.490173 -20.740173 -21.1969z" fill-rule="nonzero"></path><path fill="#ff9900" stroke="#666666" stroke-width="2.0" stroke-linejoin="round" stroke-linecap="butt" d="m571.9449 131.43045l0 0c0 -11.706703 9.285706 -21.196854 20.740173 -21.196854l0 0c5.5006104 0 10.77594 2.2332306 14.665466 6.208412c3.8895264 3.9751816 6.074646 9.366684 6.074646 14.988441l0 0c0 11.706696 -9.285645 21.196838 -20.740112 21.196838l0 0c-11.454468 0 -20.740173 -9.490143 -20.740173 -21.196838z" fill-rule="nonzero"></path><path fill="#ff9900" stroke="#666666" stroke-width="2.0" stroke-linejoin="round" stroke-linecap="butt" d="m571.9449 259.43045l0 0c0 -11.706696 9.285706 -21.196854 20.740173 -21.196854l0 0c5.5006104 0 10.77594 2.2332306 14.665466 6.20842c3.8895264 3.975174 6.074646 9.366669 6.074646 14.988434l0 0c0 11.706696 -9.285645 21.196838 -20.740112 21.196838l0 0c-11.454468 0 -20.740173 -9.490143 -20.740173 -21.196838z" fill-rule="nonzero"></path><path fill="#ff9900" stroke="#666666" stroke-width="2.0" stroke-linejoin="round" stroke-linecap="butt" d="m571.9449 383.0525l0 0c0 -11.706696 9.285706 -21.196838 20.740173 -21.196838l0 0c5.5006104 0 10.77594 2.2332153 14.665466 6.2084045c3.8895264 3.9751892 6.074646 9.366669 6.074646 14.988434l0 0c0 11.706696 -9.285645 21.196838 -20.740112 21.196838l0 0c-11.454468 0 -20.740173 -9.490143 -20.740173 -21.196838z" fill-rule="nonzero"></path><path fill="#ff9900" stroke="#666666" stroke-width="2.0" stroke-linejoin="round" stroke-linecap="butt" d="m571.9449 643.4304l0 0c0 -11.706665 9.285706 -21.196838 20.740173 -21.196838l0 0c5.5006104 0 10.77594 2.2332764 14.665466 6.208435c3.8895264 3.9751587 6.074646 9.366699 6.074646 14.988403l0 0c0 11.706726 -9.285645 21.1969 -20.740112 21.1969l0 0c-11.454468 0 -20.740173 -9.490173 -20.740173 -21.1969z" fill-rule="nonzero"></path><path fill="#ff0000" stroke="#666666" stroke-width="2.0" stroke-linejoin="round" stroke-linecap="butt" d="m651.9449 131.43045l0 0c0 -11.706703 9.285706 -21.196854 20.740173 -21.196854l0 0c5.5006104 0 10.77594 2.2332306 14.665466 6.208412c3.8895264 3.9751816 6.074646 9.366684 6.074646 14.988441l0 0c0 11.706696 -9.285645 21.196838 -20.740112 21.196838l0 0c-11.454468 0 -20.740173 -9.490143 -20.740173 -21.196838z" fill-rule="nonzero"></path><path fill="#ff0000" stroke="#666666" stroke-width="2.0" stroke-linejoin="round" stroke-linecap="butt" d="m651.9449 643.4304l0 0c0 -11.706665 9.285706 -21.196838 20.740173 -21.196838l0 0c5.5006104 0 10.77594 2.2332764 14.665466 6.208435c3.8895264 3.9751587 6.074646 9.366699 6.074646 14.988403l0 0c0 11.706726 -9.285645 21.1969 -20.740112 21.1969l0 0c-11.454468 0 -20.740173 -9.490173 -20.740173 -21.1969z" fill-rule="nonzero"></path><path stroke="#666666" stroke-width="2.0" stroke-linejoin="round" stroke-linecap="butt" d="m146.67192 383.0525l71.80942 2.7664185" fill-rule="evenodd"></path><path fill="#666666" stroke="#666666" stroke-width="2.0" stroke-linecap="butt" d="m218.35417 389.1199l9.196625 -2.9516296l-8.942291 -3.6503906z" fill-rule="evenodd"></path><path stroke="#666666" stroke-width="2.0" stroke-linejoin="round" stroke-linecap="butt" d="m710.7874 130.28084l117.67297 194.50441" fill-rule="evenodd"></path><path fill="#666666" stroke="#666666" stroke-width="2.0" stroke-linecap="butt" d="m825.6339 326.4952l7.524536 6.055664l-1.8716431 -9.475616z" fill-rule="evenodd"></path><path stroke="#666666" stroke-width="2.0" stroke-linejoin="round" stroke-linecap="butt" d="m710.7874 258.28085l81.49982 82.30371" fill-rule="evenodd"></path><path fill="#666666" stroke="#666666" stroke-width="2.0" stroke-linecap="butt" d="m789.93994 342.90897l8.733582 4.1248474l-4.0389404 -8.773651z" fill-rule="evenodd"></path><path stroke="#666666" stroke-width="2.0" stroke-linejoin="round" stroke-linecap="butt" d="m710.7874 386.28085l63.895325 -2.7183228" fill-rule="evenodd"></path><path fill="#666666" stroke="#666666" stroke-width="2.0" stroke-linecap="butt" d="m774.8232 386.86304l8.927551 -3.6862793l-9.208374 -2.9147034z" fill-rule="evenodd"></path><path stroke="#666666" stroke-width="2.0" stroke-linejoin="round" stroke-linecap="butt" d="m710.7874 514.2808l81.79724 -88.47592" fill-rule="evenodd"></path><path fill="#666666" stroke="#666666" stroke-width="2.0" stroke-linecap="butt" d="m795.01025 428.0475l3.7357178 -8.907013l-8.587036 4.4219055z" fill-rule="evenodd"></path><path stroke="#666666" stroke-width="2.0" stroke-linejoin="round" stroke-linecap="butt" d="m710.7874 642.2808l117.81366 -200.87723" fill-rule="evenodd"></path><path fill="#666666" stroke="#666666" stroke-width="2.0" stroke-linecap="butt" d="m831.45056 443.0748l1.7421875 -9.500275l-7.441223 6.1578064z" fill-rule="evenodd"></path><path fill="#cccccc" stroke="#666666" stroke-width="2.0" stroke-linejoin="round" stroke-linecap="butt" d="m50.671917 639.0525l0 0c0 -26.509644 21.49033 -48.0 47.999996 -48.0l0 0c12.730392 0 24.939384 5.057129 33.941124 14.058899c9.001755 9.001709 14.058884 21.210693 14.058884 33.9411l0 0c0 26.509644 -21.490334 48.0 -48.000008 48.0l0 0c-26.509666 0 -47.999996 -21.490356 -47.999996 -48.0z" fill-rule="nonzero"></path><path fill="#cccccc" stroke="#666666" stroke-width="2.0" stroke-linejoin="round" stroke-linecap="butt" d="m50.671917 135.05249l0 0c0 -26.509666 21.49033 -48.0 47.999996 -48.0l0 0c12.730392 0 24.939384 5.057129 33.941124 14.058876c9.001755 9.001747 14.058884 21.21074 14.058884 33.941124l0 0c0 26.509674 -21.490334 48.0 -48.000008 48.0l0 0c-26.509666 0 -47.999996 -21.490326 -47.999996 -48.0z" fill-rule="nonzero"></path><path stroke="#666666" stroke-width="2.0" stroke-linejoin="round" stroke-linecap="butt" d="m146.67192 135.05249l71.819916 -4.0894775" fill-rule="evenodd"></path><path fill="#666666" stroke="#666666" stroke-width="2.0" stroke-linecap="butt" d="m218.67964 134.26114l8.873718 -3.814087l-9.249313 -2.7821503z" fill-rule="evenodd"></path><path stroke="#666666" stroke-width="2.0" stroke-linejoin="round" stroke-linecap="butt" d="m146.67192 639.0525l71.80942 2.7664185" fill-rule="evenodd"></path><path fill="#666666" stroke="#666666" stroke-width="2.0" stroke-linecap="butt" d="m218.35417 645.11993l9.196625 -2.9516602l-8.942291 -3.6503906z" fill-rule="evenodd"></path><path fill="#cccccc" stroke="#666666" stroke-width="2.0" stroke-linejoin="round" stroke-linecap="butt" d="m786.67194 639.0525l0 0c0 -26.509644 21.490295 -48.0 48.0 -48.0l0 0c12.730347 0 24.939331 5.057129 33.9411 14.058899c9.00177 9.001709 14.058899 21.210693 14.058899 33.9411l0 0c0 26.509644 -21.490356 48.0 -48.0 48.0l0 0c-26.509705 0 -48.0 -21.490356 -48.0 -48.0z" fill-rule="nonzero"></path><path stroke="#666666" stroke-width="2.0" stroke-linejoin="round" stroke-linecap="butt" d="m710.7874 642.2808l78.58716 26.83496" fill-rule="evenodd"></path><path fill="#666666" stroke="#666666" stroke-width="2.0" stroke-linecap="butt" d="m788.3071 672.24207l9.656738 -0.19329834l-7.5217285 -6.059143z" fill-rule="evenodd"></path><path stroke="#666666" stroke-width="2.0" stroke-linejoin="round" stroke-linecap="butt" d="m710.7874 514.2808l69.648926 114.51898" fill-rule="evenodd"></path><path fill="#666666" stroke="#666666" stroke-width="2.0" stroke-linecap="butt" d="m777.6139 630.51636l7.5387573 6.038086l-1.8938599 -9.471252z" fill-rule="evenodd"></path><path stroke="#666666" stroke-width="2.0" stroke-linejoin="round" stroke-linecap="butt" d="m710.7874 386.28085l85.38147 207.73148" fill-rule="evenodd"></path><path fill="#666666" stroke="#666666" stroke-width="2.0" stroke-linecap="butt" d="m793.11346 595.2682l6.5058594 7.138916l-0.3949585 -9.650635z" fill-rule="evenodd"></path><path stroke="#666666" stroke-width="2.0" stroke-linejoin="round" stroke-linecap="butt" d="m710.7874 258.28085l119.697815 321.52567" fill-rule="evenodd"></path><path fill="#666666" stroke="#666666" stroke-width="2.0" stroke-linecap="butt" d="m827.38934 580.95905l6.262512 7.3533325l-0.070739746 -9.658386z" fill-rule="evenodd"></path><path stroke="#666666" stroke-width="2.0" stroke-linejoin="round" stroke-linecap="butt" d="m710.7874 130.28084l154.04059 463.4431" fill-rule="evenodd"></path><path fill="#666666" stroke="#666666" stroke-width="2.0" stroke-linecap="butt" d="m861.6932 594.7659l5.9976196 7.570923l0.27209473 -9.654846z" fill-rule="evenodd"></path><path fill="#cccccc" stroke="#666666" stroke-width="2.0" stroke-linejoin="round" stroke-linecap="butt" d="m786.67194 135.05249l0 0c0 -26.509666 21.490295 -48.0 48.0 -48.0l0 0c12.730347 0 24.939331 5.057129 33.9411 14.058876c9.00177 9.001747 14.058899 21.21074 14.058899 33.941124l0 0c0 26.509674 -21.490356 48.0 -48.0 48.0l0 0c-26.509705 0 -48.0 -21.490326 -48.0 -48.0z" fill-rule="nonzero"></path><path stroke="#666666" stroke-width="2.0" stroke-linejoin="round" stroke-linecap="butt" d="m710.7874 130.28084l78.52869 -25.467567" fill-rule="evenodd"></path><path fill="#666666" stroke="#666666" stroke-width="2.0" stroke-linecap="butt" d="m790.3352 107.95561l7.61438 -5.942276l-9.652588 -0.34241486z" fill-rule="evenodd"></path><path stroke="#666666" stroke-width="2.0" stroke-linejoin="round" stroke-linecap="butt" d="m710.7874 258.28085l69.592285 -113.010376" fill-rule="evenodd"></path><path fill="#666666" stroke="#666666" stroke-width="2.0" stroke-linecap="butt" d="m783.19257 147.00267l1.946228 -9.460556l-7.5720215 5.99617z" fill-rule="evenodd"></path><path stroke="#666666" stroke-width="2.0" stroke-linejoin="round" stroke-linecap="butt" d="m710.7874 386.28085l85.35382 -206.19958" fill-rule="evenodd"></path><path fill="#666666" stroke="#666666" stroke-width="2.0" stroke-linecap="butt" d="m799.19354 181.34473l0.41900635 -9.649597l-6.5236206 7.1226654z" fill-rule="evenodd"></path><path stroke="#666666" stroke-width="2.0" stroke-linejoin="round" stroke-linecap="butt" d="m710.7874 514.2808l119.680786 -319.98874" fill-rule="evenodd"></path><path fill="#666666" stroke="#666666" stroke-width="2.0" stroke-linecap="butt" d="m833.56226 195.44933l0.08538818 -9.65831l-6.2736206 7.343811z" fill-rule="evenodd"></path><path stroke="#666666" stroke-width="2.0" stroke-linejoin="round" stroke-linecap="butt" d="m709.87286 644.3952l154.93958 -464.01935" fill-rule="evenodd"></path><path fill="#666666" stroke="#666666" stroke-width="2.0" stroke-linecap="butt" d="m867.9458 181.42212l-0.25878906 -9.655212l-6.0079956 7.562683z" fill-rule="evenodd"></path><path fill="#cccccc" stroke="#666666" stroke-width="2.0" stroke-linejoin="round" stroke-linecap="butt" d="m786.67194 383.0525l0 0c0 -26.509674 21.490295 -48.0 48.0 -48.0l0 0c12.730347 0 24.939331 5.057129 33.9411 14.058868c9.00177 9.00177 14.058899 21.210754 14.058899 33.94113l0 0c0 26.509674 -21.490356 48.0 -48.0 48.0l0 0c-26.509705 0 -48.0 -21.490326 -48.0 -48.0z" fill-rule="nonzero"></path></svg>

